<svg width="23" height="22" viewBox="0 0 23 22" fill="none" xmlns="http://www.w3.org/2000/svg">
<path d="M20.6555 8.41256C20.5979 8.24274 20.4918 8.09353 20.3503 7.98335C20.2088 7.87316 20.0381 7.80681 19.8594 7.79251L14.6302 7.377L12.3674 2.36798C12.2954 2.20665 12.1781 2.06963 12.0299 1.97344C11.8817 1.87726 11.7088 1.82602 11.5321 1.82593C11.3554 1.82583 11.1825 1.87687 11.0341 1.9729C10.8858 2.06892 10.7685 2.20582 10.6962 2.36707L8.4334 7.377L3.20425 7.79251C3.02856 7.80642 2.8606 7.87066 2.72046 7.97754C2.58032 8.08442 2.47394 8.2294 2.41404 8.39516C2.35415 8.56091 2.34328 8.74041 2.38272 8.91218C2.42217 9.08395 2.51027 9.24072 2.63648 9.36373L6.50079 13.1308L5.13411 19.0488C5.09261 19.2279 5.10591 19.4154 5.17228 19.5869C5.23866 19.7584 5.35504 19.9059 5.50632 20.0105C5.65761 20.115 5.83682 20.1716 6.02069 20.173C6.20457 20.1744 6.38462 20.1205 6.53748 20.0183L11.5318 16.6888L16.5262 20.0183C16.6824 20.1221 16.8667 20.1755 17.0541 20.1713C17.2416 20.1672 17.4234 20.1058 17.5749 19.9953C17.7265 19.8848 17.8405 19.7306 17.9018 19.5533C17.9631 19.3761 17.9686 19.1843 17.9176 19.0039L16.24 13.1336L20.4006 9.38941C20.673 9.14359 20.773 8.76019 20.6555 8.41256Z" fill="#F3CD03"/>
</svg>
